<svg xmlns="http://www.w3.org/2000/svg" xmlns:xlink="http://www.w3.org/1999/xlink" width="282" height="240.602" viewBox="0 0 282 240.602">
  <defs>
    <clipPath id="clip-path">
      <rect id="Rectangle_72" data-name="Rectangle 72" width="282" height="240.602" fill="none"/>
    </clipPath>
  </defs>
  <g id="Group_56" data-name="Group 56" clip-path="url(#clip-path)">
    <path id="Path_81" data-name="Path 81" d="M155.1,109.611a8.5,8.5,0,1,1,8.5-8.5,8.508,8.508,0,0,1-8.5,8.5m0-14.774a6.275,6.275,0,1,0,6.276,6.274,6.281,6.281,0,0,0-6.276-6.274" transform="translate(118.4 74.797)" fill="#f1f2f2"/>
    <path id="Path_82" data-name="Path 82" d="M149.95,103.81c-.134,0-.2-.063-.2-.188v-8.59a.176.176,0,0,1,.2-.2h2.361a4.406,4.406,0,0,1,1.714.28,1.87,1.87,0,0,1,.974.9,3.7,3.7,0,0,1,.313,1.661,3.619,3.619,0,0,1-.233,1.285,2.645,2.645,0,0,1-.727,1.061,2.018,2.018,0,0,0-.3.367c-.067.112-.042.257.074.434.079.125.157.244.233.36a1.926,1.926,0,0,0,.246.307,1.705,1.705,0,0,0,.307.24,1.551,1.551,0,0,0,.446.186,2.572,2.572,0,0,0,.62.067c.1,0,.155.011.174.033a.4.4,0,0,1,.027.193v1.428a.165.165,0,0,1-.033.114.371.371,0,0,1-.188.047c-.1.007-.278.013-.526.013a3.182,3.182,0,0,1-1.894-.6,3.681,3.681,0,0,1-.593-.56,4.49,4.49,0,0,1-.488-.7,5.869,5.869,0,0,1-.372-.806c-.009-.018-.029-.07-.06-.161s-.065-.132-.1-.132h-.08c-.045,0-.067.07-.067.213v2.56c0,.125-.07.188-.213.188Zm1.827-4.669a.131.131,0,0,0,.02.087.138.138,0,0,0,.087.02h.36a.918.918,0,0,0,.8-.434,1.969,1.969,0,0,0,.293-1.126,2.394,2.394,0,0,0-.139-.927.8.8,0,0,0-.387-.427,1.373,1.373,0,0,0-.58-.114h-.36a.147.147,0,0,0-.074.013c-.013.011-.02.047-.02.108Z" transform="translate(120.942 76.589)" fill="#f1f2f2"/>
    <path id="Path_83" data-name="Path 83" d="M56.877,43.216c29.34-3.438,69.8-15.332,87.2-40.746-19.971,23.378-58.05,34.088-87.2,40.746" transform="translate(45.935 1.995)" fill="#f1f2f2"/>
    <path id="Path_84" data-name="Path 84" d="M219.305,59.82C213.185,30.1,203.456,15.976,197.516,8.292c-4.759-6.15-12.87-12.335-18.884-4.868-18.3,22.734-48.3,34.506-88.051,41.79,0,0-.817.145-2.034.363-17.53,3.115-36.913,5.4-58,7.366-.181.018-.363.045-.535.063C20.87,54.178,14.294,63.081,15.237,73.18A19.455,19.455,0,0,0,21.85,86.215a5.72,5.72,0,0,0,7.476-.045,5.647,5.647,0,0,0,1.562-2.216c4.233-10.755,16-19.139,30.547-20.5A40.079,40.079,0,0,1,83.7,67.577a22.753,22.753,0,0,1,3.36,2,29.808,29.808,0,0,1,6.348,5.784c.054.074.108.137.164.21a42.563,42.563,0,0,1,2.379,3.552h.009c.009.027.027.045.036.072a23.223,23.223,0,0,1,1.7,18.819,24.338,24.338,0,0,1-1.654,3.861A2.168,2.168,0,0,0,98,105.034c97.388-1.271,122.774-32.107,123.455-32.953l.009-.018c-.653-4.36-1.379-8.429-2.162-12.243M192.829,22.579l-5.159-1.4-4.087,3.453-.255-5.342-4.55-2.816,5-1.9,1.273-5.2,3.351,4.168,5.331-.39L190.8,17.628Z" transform="translate(12.233 0)" fill="#f1f2f2"/>
    <path id="Path_85" data-name="Path 85" d="M183.269,33.093l2.169,12.243-.011.02c-.685.846-26.068,31.682-123.463,32.949a2.165,2.165,0,0,1-1.954-3.158,24.8,24.8,0,0,0,1.647-3.856l.005-.005c1.189-.034,93.281-3.382,121.606-38.193" transform="translate(48.265 26.727)" fill="#f1f2f2"/>
    <path id="Path_86" data-name="Path 86" d="M63.221,67.942A409.9,409.9,0,0,0,120.47,59.1c14.056-3.331,28.058-7.509,40.874-14.269a73.918,73.918,0,0,0,12.133-7.869C147.467,59.2,96.812,66.2,63.221,67.942" transform="translate(51.059 29.852)" fill="#f1f2f2"/>
    <path id="Path_87" data-name="Path 87" d="M87.032,47.752c.051.07.027.17.036.26a29.649,29.649,0,0,0-6.347-5.781,23.145,23.145,0,0,0-3.357-2.006A40.192,40.192,0,0,0,55.1,36.1c-14.537,1.365-26.314,9.749-30.542,20.5a5.633,5.633,0,0,1-1.567,2.218c2.757-10.2,11.166-21.03,28.745-24.159,15.419-2.744,26.937,1.517,35.3,13.087" transform="translate(18.566 27.347)" fill="#f1f2f2"/>
    <path id="Path_88" data-name="Path 88" d="M17.813,114.256a.275.275,0,0,1-.313-.313V62.05a.275.275,0,0,1,.313-.311H29.049a.276.276,0,0,1,.313.311V80.7a2.093,2.093,0,0,0,.04.428c.025.13.089.2.2.2h.155c.1,0,.233-.09.39-.273a3.033,3.033,0,0,0,.39-.586q1.559-2.964,2.652-5.032t2.108-3.785q1.014-1.716,2.108-3.785t2.652-5.032a2.13,2.13,0,0,1,.781-.9,1.914,1.914,0,0,1,.859-.193H52.539q.935,0,.779.624A16.731,16.731,0,0,1,52.3,64.781q-2.264,3.59-4.136,6.789t-3.59,6.554q-1.716,3.357-3.51,7.491a4.745,4.745,0,0,0-.39,1.249,7.675,7.675,0,0,0-.08,1.094,11.333,11.333,0,0,0,.47,3.12,17.772,17.772,0,0,0,1.287,3.239A22.277,22.277,0,0,0,44.265,97.4a19.354,19.354,0,0,0,2.343,2.654,12.963,12.963,0,0,0,3.59,2.536,11.256,11.256,0,0,0,4.915.976,1.264,1.264,0,0,1,.39.078c.157.052.235.13.235.233v9.989c0,.26-.078.39-.235.39a41.787,41.787,0,0,1-9.013-.819,18.053,18.053,0,0,1-7.062-3.472,19.36,19.36,0,0,1-2.614-2.458,31.21,31.21,0,0,1-2.341-3,27.7,27.7,0,0,1-2.07-3.55,39.355,39.355,0,0,1-1.715-4.1,2.23,2.23,0,0,0-.546-.9c-.21-.183-.34-.273-.39-.273H29.6a.6.6,0,0,0-.235.546v17.713a.276.276,0,0,1-.313.313H17.813Z" transform="translate(14.133 49.862)" fill="#f1f2f2"/>
    <path id="Path_89" data-name="Path 89" d="M41.64,114.256q-1.171,0-1.171-1.094V62.909a1.034,1.034,0,0,1,1.171-1.17H68.173a2.9,2.9,0,0,1,1.287.155q.2.157.2,1.171v6.242c0,.728-.09,1.159-.273,1.287a2.4,2.4,0,0,1-1.209.2H53.034a1.282,1.282,0,0,0-.625.08c-.052.051-.078.233-.078.544V82.651a1.278,1.278,0,0,0,.078.624,1.033,1.033,0,0,0,.548.08h11.7q1.171,0,1.367.233a3.141,3.141,0,0,1,.2,1.482v5.542a2.418,2.418,0,0,1-.235,1.4,2.22,2.22,0,0,1-1.327.235h-11.7a1.073,1.073,0,0,0-.508.078c-.078.052-.118.208-.118.468V104.5a1.312,1.312,0,0,0,.078.586c.052.078.235.116.548.116H67.938c.884,0,1.392.092,1.522.273a3.141,3.141,0,0,1,.2,1.444v5.618c0,.833-.1,1.327-.313,1.484a2.919,2.919,0,0,1-1.482.233Z" transform="translate(32.684 49.862)" fill="#f1f2f2"/>
    <path id="Path_90" data-name="Path 90" d="M93.08,99.039a15.669,15.669,0,0,1-2.263,8.9,12.773,12.773,0,0,1-6.01,4.837,22.281,22.281,0,0,1-8.272,1.482H59.6q-1.169,0-1.17-1.092V62.909a1.034,1.034,0,0,1,1.17-1.17H73.414a71.95,71.95,0,0,1,7.334.351,18.117,18.117,0,0,1,6.088,1.638,9.184,9.184,0,0,1,4.136,4.058,16.085,16.085,0,0,1,1.482,7.531,16.643,16.643,0,0,1-.546,3.747,15.89,15.89,0,0,1-1.795,4.369,7.876,7.876,0,0,1-3.277,3.122c-.313.1-.43.273-.351.508a.937.937,0,0,0,.351.506,10.461,10.461,0,0,1,4.409,4.526,14.021,14.021,0,0,1,1.835,6.945M79.969,75.862a6.325,6.325,0,0,0-1.014-3.941,4.863,4.863,0,0,0-3-1.677,26.5,26.5,0,0,0-4.957-.39h-.155c-.365,0-.546.235-.546.7V82.183c0,.365.208.546.624.546h2.966a8.607,8.607,0,0,0,3.433-.584,3.881,3.881,0,0,0,1.99-2.068,10.659,10.659,0,0,0,.663-4.215m.468,23.1a9.976,9.976,0,0,0-.859-4.722,3.911,3.911,0,0,0-2.5-1.95,16.334,16.334,0,0,0-4.058-.43H70.839c-.365,0-.546.157-.546.47v13.264a.832.832,0,0,0,.078.43c.051.078.233.116.546.116h3.122a12.078,12.078,0,0,0,2.068-.2,5.28,5.28,0,0,0,2.106-.857,4.723,4.723,0,0,0,1.6-2.108,10.442,10.442,0,0,0,.624-4.018" transform="translate(47.19 49.862)" fill="#f1f2f2"/>
    <path id="Path_91" data-name="Path 91" d="M79.5,114.257a.839.839,0,0,1-.938-.624,7.52,7.52,0,0,1,.157-2.5q.466-3.433,1.56-8.311t2.576-10.34q1.48-5.461,3.2-10.925t3.51-10.182A80.109,80.109,0,0,1,93,63.455a7.864,7.864,0,0,1,.9-1.249,1.372,1.372,0,0,1,1.052-.468h7.726a4.41,4.41,0,0,1,1.092.586,3.161,3.161,0,0,1,.859,1.132,68.979,68.979,0,0,1,3.512,7.921q1.795,4.721,3.512,10.182t3.2,10.925q1.48,5.464,2.574,10.34t1.56,8.311a7.624,7.624,0,0,1,.157,2.5q-.157.624-1.014.624h-9.208a1.109,1.109,0,0,1-.976-.39,6.893,6.893,0,0,1-.586-2.108q-.312-1.714-.819-4.058t-.819-3.823c-.054-.416-.117-.649-.2-.7a1.593,1.593,0,0,0-.663-.078H92.839a1.283,1.283,0,0,0-.624.078,2.384,2.384,0,0,0-.233.7q-.315,1.483-.819,3.823t-.821,4.058a6.893,6.893,0,0,1-.586,2.108,1.108,1.108,0,0,1-.974.39Zm15.84-20.133h7.023c.363,0,.571-.065.625-.2a1.378,1.378,0,0,0-.078-.741q-.781-3.121-1.757-6.672t-1.755-6.2c-.1-.468-.262-.7-.468-.7h-.313c-.155,0-.313.235-.468.7q-.466,1.716-1.092,3.9T95.845,88.7q-.586,2.3-1.132,4.487a1.671,1.671,0,0,0,0,.741q.076.2.624.2" transform="translate(63.403 49.861)" fill="#f1f2f2"/>
    <path id="Path_92" data-name="Path 92" d="M137.481,99.039a15.669,15.669,0,0,1-2.265,8.9,12.769,12.769,0,0,1-6.009,4.837,22.281,22.281,0,0,1-8.272,1.482H104c-.779,0-1.171-.363-1.171-1.092V62.909A1.035,1.035,0,0,1,104,61.739h13.812a71.924,71.924,0,0,1,7.334.351,18.128,18.128,0,0,1,6.09,1.638,9.2,9.2,0,0,1,4.136,4.058,16.085,16.085,0,0,1,1.482,7.531,16.748,16.748,0,0,1-.546,3.747,15.9,15.9,0,0,1-1.8,4.369,7.872,7.872,0,0,1-3.275,3.122c-.315.1-.43.273-.351.508a.937.937,0,0,0,.351.506,10.457,10.457,0,0,1,4.407,4.526,14.023,14.023,0,0,1,1.837,6.945M124.369,75.862a6.326,6.326,0,0,0-1.012-3.941,4.868,4.868,0,0,0-3.006-1.677,26.482,26.482,0,0,0-4.955-.39h-.155c-.367,0-.546.235-.546.7V82.183c0,.365.206.546.624.546h2.966a8.613,8.613,0,0,0,3.433-.584,3.887,3.887,0,0,0,1.99-2.068,10.7,10.7,0,0,0,.662-4.215m.47,23.1a9.976,9.976,0,0,0-.859-4.722,3.91,3.91,0,0,0-2.5-1.95,16.308,16.308,0,0,0-4.056-.43H115.24c-.367,0-.546.157-.546.47v13.264a.832.832,0,0,0,.078.43c.051.078.231.116.546.116h3.12a12.062,12.062,0,0,0,2.068-.2,5.27,5.27,0,0,0,2.106-.857,4.71,4.71,0,0,0,1.6-2.108,10.4,10.4,0,0,0,.625-4.018" transform="translate(83.049 49.862)" fill="#f1f2f2"/>
    <path id="Path_93" data-name="Path 93" d="M1.171,145.132Q0,145.132,0,144.038V93.785a1.034,1.034,0,0,1,1.171-1.17H27.7a2.9,2.9,0,0,1,1.287.155q.2.157.2,1.171v6.242c0,.728-.09,1.159-.273,1.287a2.4,2.4,0,0,1-1.209.2H12.565a1.282,1.282,0,0,0-.625.08c-.052.051-.078.233-.078.544v11.238a1.278,1.278,0,0,0,.078.624,1.033,1.033,0,0,0,.548.08h11.7q1.171,0,1.367.233a3.141,3.141,0,0,1,.2,1.482v5.542a2.43,2.43,0,0,1-.235,1.4,2.239,2.239,0,0,1-1.327.233h-11.7a1.073,1.073,0,0,0-.508.078c-.078.052-.117.208-.117.468v19.743a2.669,2.669,0,0,1-.233,1.484,2.884,2.884,0,0,1-1.56.233Z" transform="translate(0 74.798)" fill="#f1f2f2"/>
    <path id="Path_94" data-name="Path 94" d="M16.235,145.133a.839.839,0,0,1-.938-.624,7.52,7.52,0,0,1,.157-2.5q.466-3.433,1.56-8.311t2.576-10.34q1.48-5.461,3.2-10.925t3.51-10.182a80.115,80.115,0,0,1,3.434-7.921,7.865,7.865,0,0,1,.9-1.249,1.372,1.372,0,0,1,1.052-.468H39.41A4.41,4.41,0,0,1,40.5,93.2a3.161,3.161,0,0,1,.859,1.132,68.976,68.976,0,0,1,3.512,7.921q1.795,4.721,3.512,10.182t3.2,10.925q1.48,5.464,2.574,10.34t1.56,8.311a7.624,7.624,0,0,1,.157,2.5q-.157.624-1.014.624H45.654a1.109,1.109,0,0,1-.976-.39,6.893,6.893,0,0,1-.586-2.108q-.312-1.716-.819-4.058t-.819-3.823c-.054-.416-.117-.649-.2-.7a1.593,1.593,0,0,0-.663-.078H29.577a1.283,1.283,0,0,0-.624.078,2.384,2.384,0,0,0-.233.7q-.315,1.483-.819,3.823t-.821,4.058a6.893,6.893,0,0,1-.586,2.108,1.107,1.107,0,0,1-.974.39ZM32.075,125H39.1c.363,0,.571-.065.625-.2a1.378,1.378,0,0,0-.078-.741q-.781-3.121-1.757-6.672t-1.755-6.2c-.1-.468-.262-.7-.468-.7h-.313c-.155,0-.313.235-.468.7q-.466,1.716-1.092,3.9t-1.209,4.488q-.586,2.3-1.132,4.487a1.671,1.671,0,0,0,0,.741q.076.2.624.2" transform="translate(12.311 74.797)" fill="#f1f2f2"/>
    <path id="Path_95" data-name="Path 95" d="M69.624,142.351q0,2.109-2.5,2.735a12.768,12.768,0,0,1-2.733.586q-1.643.2-3.125.273T59,146.022q-9.609,0-15.428-6.835T37.75,119.226q0-13.281,5.625-20.115T59,92.274q.781,0,2.267.117t3.125.313a12.769,12.769,0,0,1,2.733.586,7.5,7.5,0,0,1,1.837.7,1.344,1.344,0,0,1,.663,1.249v7.735q0,2.424-2.655.548a13.034,13.034,0,0,0-3.6-1.6,13.241,13.241,0,0,0-3.436-.506,8.833,8.833,0,0,0-4.844,1.249,8.947,8.947,0,0,0-3.124,3.516,17.221,17.221,0,0,0-1.641,5.313,44.341,44.341,0,0,0-.468,6.719q0,2.5.233,5.116a32.321,32.321,0,0,0,.86,5.079,18.052,18.052,0,0,0,1.719,4.414,8.433,8.433,0,0,0,2.89,3.084,8.018,8.018,0,0,0,4.374,1.133,14.326,14.326,0,0,0,3.751-.506,10.77,10.77,0,0,0,2.968-1.213,5.128,5.128,0,0,1,2.382-1.014q.586.079.586,1.4Z" transform="translate(30.488 74.523)" fill="#f1f2f2"/>
    <path id="Path_96" data-name="Path 96" d="M69.215,145.132a1.238,1.238,0,0,1-.779-.313.956.956,0,0,1-.39-.781V102.212c0-.258-.025-.416-.078-.466a.813.813,0,0,0-.47-.08H58.6a2.144,2.144,0,0,1-1.211-.2,1.364,1.364,0,0,1-.193-.9V93.629a1.212,1.212,0,0,1,.193-.821,1.751,1.751,0,0,1,1.054-.193H89.428a2.172,2.172,0,0,1,1.17.193,1.068,1.068,0,0,1,.233.821v6.945c0,.468-.078.768-.233.9a2.376,2.376,0,0,1-1.249.2h-8.9a1.038,1.038,0,0,0-.548.08c-.052.051-.078.208-.078.466v41.827a.965.965,0,0,1-1.09,1.094Z" transform="translate(46.196 74.798)" fill="#f1f2f2"/>
    <path id="Path_97" data-name="Path 97" d="M75.806,119.188a49.274,49.274,0,0,1,1.878-14.551,16.446,16.446,0,0,1,6.688-9.194q4.813-3.167,13.5-3.169a29.16,29.16,0,0,1,11.072,1.8,15.131,15.131,0,0,1,6.766,5.242,21.31,21.31,0,0,1,3.364,8.449,62.3,62.3,0,0,1,.94,11.422,61.649,61.649,0,0,1-.94,11.384,21.286,21.286,0,0,1-3.364,8.411,15.115,15.115,0,0,1-6.766,5.24,29.159,29.159,0,0,1-11.072,1.8q-8.685,0-13.5-3.169a16.444,16.444,0,0,1-6.688-9.154,48.879,48.879,0,0,1-1.878-14.513m12.283,0a42.326,42.326,0,0,0,1.018,10.6q1.014,3.717,3.129,5.163a9.482,9.482,0,0,0,5.477,1.448,10.1,10.1,0,0,0,5.555-1.408q2.188-1.41,3.324-5.163a38.7,38.7,0,0,0,1.133-10.641,39.033,39.033,0,0,0-1.133-10.717,9.317,9.317,0,0,0-3.324-5.242,9.691,9.691,0,0,0-5.555-1.488,9.314,9.314,0,0,0-5.477,1.488q-2.112,1.486-3.129,5.242a43.214,43.214,0,0,0-1.018,10.717" transform="translate(61.223 74.523)" fill="#f1f2f2"/>
    <path id="Path_98" data-name="Path 98" d="M103.246,145.134q-1.171,0-1.171-1.094V93.786a1.035,1.035,0,0,1,1.171-1.171h13.812a25.938,25.938,0,0,1,10.027,1.64,10.943,10.943,0,0,1,5.7,5.267,21.671,21.671,0,0,1,1.835,9.714,21.223,21.223,0,0,1-1.365,7.531,15.532,15.532,0,0,1-4.253,6.2,11.67,11.67,0,0,0-1.757,2.146c-.389.653-.248,1.5.43,2.536q.7,1.1,1.365,2.108a11.044,11.044,0,0,0,1.444,1.795,9.677,9.677,0,0,0,1.795,1.4,8.848,8.848,0,0,0,2.614,1.092,14.67,14.67,0,0,0,3.63.39c.571,0,.909.067,1.014.2a2.358,2.358,0,0,1,.155,1.132v8.349a.923.923,0,0,1-.2.663,2.089,2.089,0,0,1-1.092.275q-.9.076-3.084.078a18.537,18.537,0,0,1-11.079-3.512,21.617,21.617,0,0,1-3.474-3.277,25.32,25.32,0,0,1-2.847-4.1,33.82,33.82,0,0,1-2.185-4.72q-.079-.157-.352-.938t-.584-.779h-.468c-.262,0-.39.416-.39,1.249V144.04q0,1.093-1.249,1.094Zm10.69-27.313a.49.49,0,0,0,.624.624h2.108a5.369,5.369,0,0,0,4.682-2.536,11.541,11.541,0,0,0,1.717-6.594,13.838,13.838,0,0,0-.821-5.423,4.68,4.68,0,0,0-2.261-2.5,8.089,8.089,0,0,0-3.395-.663h-2.108a.844.844,0,0,0-.428.078c-.078.052-.118.26-.118.624Z" transform="translate(82.438 74.798)" fill="#f1f2f2"/>
    <path id="Path_99" data-name="Path 99" d="M148.953,123.673a4.067,4.067,0,0,0-.663,1.755,11.908,11.908,0,0,0-.2,1.99v16.621a1,1,0,0,1-.351.781,1.1,1.1,0,0,1-.741.313h-9.6q-1.171,0-1.171-1.094V127.418a8.844,8.844,0,0,0-1.17-4.253q-1.171-2.145-1.95-3.395-.236-.466-1.133-1.95t-1.988-3.277q-1.1-1.792-1.99-3.317t-1.132-1.988q-2.107-4.059-3.317-7.1a46.2,46.2,0,0,1-1.717-4.955q-.507-1.912-.662-2.381-.315-1.326.311-1.755a2.553,2.553,0,0,1,1.482-.43h9.208a1.4,1.4,0,0,1,1.484,1.092q.778,2.655,1.522,4.684t1.442,3.55q.7,1.521,1.171,2.536,1.09,2.107,1.912,3.628t1.6,2.771q.548.859.859.936t.859-.936a6.324,6.324,0,0,1,.586-.936,12.8,12.8,0,0,0,.781-1.209q.426-.74.974-1.835.624-1.169,1.6-3.237t2.028-4.722a36.778,36.778,0,0,0,1.679-5.385,1.117,1.117,0,0,1,.468-.779,2.648,2.648,0,0,1,1.092-.157h9.6a1.713,1.713,0,0,1,1.132.43q.507.428.273,1.755-.079.469-.586,2.536a50.124,50.124,0,0,1-1.715,5.307,60.312,60.312,0,0,1-3.395,7.3,31.168,31.168,0,0,1-1.522,2.771q-1.052,1.754-2.341,3.863t-2.536,3.979q-1.25,1.874-2.185,3.122" transform="translate(97.777 74.797)" fill="#f1f2f2"/>
    <path id="Path_100" data-name="Path 100" d="M0,127.556H6.562v1.988H2.155v1.99H6.231v1.988H2.155v3.814H0Z" transform="translate(0 103.017)" fill="#f1f2f2"/>
    <path id="Path_101" data-name="Path 101" d="M8.88,127.556h1.782l4.255,9.779H12.486l-.842-2.072h-3.8l-.815,2.072H4.654Zm.83,2.845L8.522,133.44h2.39Z" transform="translate(3.759 103.017)" fill="#f1f2f2"/>
    <path id="Path_102" data-name="Path 102" d="M17.183,130.057a1.53,1.53,0,0,0-.712-.49,2.526,2.526,0,0,0-.85-.159,2.273,2.273,0,0,0-.483.054,1.93,1.93,0,0,0-.47.174,1.014,1.014,0,0,0-.358.311.786.786,0,0,0-.139.47.774.774,0,0,0,.333.676,3.1,3.1,0,0,0,.835.4q.5.165,1.085.331a4.468,4.468,0,0,1,1.085.47,2.568,2.568,0,0,1,.835.815,2.493,2.493,0,0,1,.331,1.368,3.147,3.147,0,0,1-.3,1.423,2.891,2.891,0,0,1-.821,1.009,3.513,3.513,0,0,1-1.2.593,5.318,5.318,0,0,1-1.444.193,5.234,5.234,0,0,1-1.768-.289,4.416,4.416,0,0,1-1.52-.94l1.535-1.685a2.228,2.228,0,0,0,.835.683,2.389,2.389,0,0,0,1.043.242,2.343,2.343,0,0,0,.531-.063,1.742,1.742,0,0,0,.484-.186,1.044,1.044,0,0,0,.345-.318.794.794,0,0,0,.13-.456.828.828,0,0,0-.338-.7,3.191,3.191,0,0,0-.85-.436c-.342-.119-.709-.239-1.1-.358a4.946,4.946,0,0,1-1.106-.484,2.681,2.681,0,0,1-.85-.8,2.286,2.286,0,0,1-.338-1.312,2.93,2.93,0,0,1,.311-1.381,2.973,2.973,0,0,1,.83-.994,3.576,3.576,0,0,1,1.195-.6,4.866,4.866,0,0,1,1.394-.2,5.524,5.524,0,0,1,1.6.235,3.717,3.717,0,0,1,1.4.788Z" transform="translate(9.381 102.906)" fill="#f1f2f2"/>
    <path id="Path_103" data-name="Path 103" d="M19.848,129.463H17.057v-1.907h7.737v1.907H22v7.874H19.848Z" transform="translate(13.775 103.017)" fill="#f1f2f2"/>
    <path id="Path_104" data-name="Path 104" d="M26.541,127.556H33.1v1.988H28.7v1.99h4.076v1.988H28.7v3.814H26.541Z" transform="translate(21.435 103.017)" fill="#f1f2f2"/>
    <path id="Path_105" data-name="Path 105" d="M31.883,132.557a5.535,5.535,0,0,1,.394-2.128,4.662,4.662,0,0,1,1.1-1.623,4.826,4.826,0,0,1,1.672-1.029,6.387,6.387,0,0,1,4.226,0,4.826,4.826,0,0,1,1.672,1.029,4.666,4.666,0,0,1,1.1,1.623,5.966,5.966,0,0,1,0,4.255,4.666,4.666,0,0,1-1.1,1.623,4.826,4.826,0,0,1-1.672,1.029,6.386,6.386,0,0,1-4.226,0,4.826,4.826,0,0,1-1.672-1.029,4.662,4.662,0,0,1-1.1-1.623,5.535,5.535,0,0,1-.394-2.128m2.238,0a3.578,3.578,0,0,0,.213,1.264,2.9,2.9,0,0,0,.616,1,2.8,2.8,0,0,0,.96.656,3.466,3.466,0,0,0,2.5,0,2.834,2.834,0,0,0,.96-.656,2.9,2.9,0,0,0,.615-1,3.8,3.8,0,0,0,0-2.52,2.869,2.869,0,0,0-.615-1,2.785,2.785,0,0,0-.96-.656,3.442,3.442,0,0,0-2.5,0,2.751,2.751,0,0,0-.96.656,2.873,2.873,0,0,0-.616,1,3.6,3.6,0,0,0-.213,1.256" transform="translate(25.749 102.906)" fill="#f1f2f2"/>
    <path id="Path_106" data-name="Path 106" d="M39.387,132.557a5.535,5.535,0,0,1,.394-2.128,4.662,4.662,0,0,1,1.1-1.623,4.826,4.826,0,0,1,1.672-1.029,6.387,6.387,0,0,1,4.226,0,4.826,4.826,0,0,1,1.672,1.029,4.667,4.667,0,0,1,1.1,1.623,5.966,5.966,0,0,1,0,4.255,4.667,4.667,0,0,1-1.1,1.623,4.826,4.826,0,0,1-1.672,1.029,6.386,6.386,0,0,1-4.226,0,4.826,4.826,0,0,1-1.672-1.029,4.662,4.662,0,0,1-1.1-1.623,5.535,5.535,0,0,1-.394-2.128m2.238,0a3.578,3.578,0,0,0,.213,1.264,2.9,2.9,0,0,0,.616,1,2.8,2.8,0,0,0,.96.656,3.466,3.466,0,0,0,2.5,0,2.834,2.834,0,0,0,.96-.656,2.9,2.9,0,0,0,.615-1,3.8,3.8,0,0,0,0-2.52,2.869,2.869,0,0,0-.615-1,2.784,2.784,0,0,0-.96-.656,3.442,3.442,0,0,0-2.5,0,2.751,2.751,0,0,0-.96.656,2.873,2.873,0,0,0-.616,1,3.6,3.6,0,0,0-.213,1.256" transform="translate(31.81 102.906)" fill="#f1f2f2"/>
    <path id="Path_107" data-name="Path 107" d="M47.182,127.556h3.232a9.2,9.2,0,0,1,2.231.262,5.116,5.116,0,0,1,1.844.85,4.161,4.161,0,0,1,1.251,1.527,5.1,5.1,0,0,1,.463,2.278,4.658,4.658,0,0,1-.448,2.093,4.518,4.518,0,0,1-1.209,1.52,5.335,5.335,0,0,1-1.753.933,6.829,6.829,0,0,1-2.086.316H47.182Zm2.155,7.791h1.119a6.029,6.029,0,0,0,1.388-.152,2.958,2.958,0,0,0,1.112-.5,2.423,2.423,0,0,0,.739-.926,3.291,3.291,0,0,0,.269-1.4,2.736,2.736,0,0,0-.269-1.249,2.512,2.512,0,0,0-.725-.879,3.2,3.2,0,0,0-1.07-.517,4.738,4.738,0,0,0-1.292-.174H49.337Z" transform="translate(38.105 103.017)" fill="#f1f2f2"/>
    <path id="Path_108" data-name="Path 108" d="M64.947,135.14l2.184,2.307H64.464l-.815-.926a3.79,3.79,0,0,1-1.305.9,4.235,4.235,0,0,1-1.569.277,4.637,4.637,0,0,1-1.285-.181,3.428,3.428,0,0,1-1.112-.544,2.654,2.654,0,0,1-1.07-2.2,2.481,2.481,0,0,1,.159-.891,2.673,2.673,0,0,1,.441-.766,3.148,3.148,0,0,1,.656-.6,3.4,3.4,0,0,1,.815-.407q-.233-.263-.434-.5a2.879,2.879,0,0,1-.345-.5,2.318,2.318,0,0,1-.222-.551,2.568,2.568,0,0,1-.076-.649,2.323,2.323,0,0,1,.257-1.133,2.254,2.254,0,0,1,.683-.774,2.893,2.893,0,0,1,.982-.443,4.629,4.629,0,0,1,1.132-.137,3.956,3.956,0,0,1,1.077.145,2.714,2.714,0,0,1,.906.443,2.206,2.206,0,0,1,.629.745,2.3,2.3,0,0,1,.233,1.072,2.215,2.215,0,0,1-.145.815,2.77,2.77,0,0,1-.394.7,3.166,3.166,0,0,1-.573.58,4.184,4.184,0,0,1-.7.45l1.258,1.339.953-1.3h2.4Zm-4.282-1.865c-.137.083-.275.168-.407.257a2.289,2.289,0,0,0-.36.289,1.238,1.238,0,0,0-.255.367,1.117,1.117,0,0,0-.1.483,1.087,1.087,0,0,0,.11.5,1.148,1.148,0,0,0,.291.374,1.469,1.469,0,0,0,.911.331,1.6,1.6,0,0,0,.835-.208,4.47,4.47,0,0,0,.7-.51Zm.663-4.2a.975.975,0,0,0-.678.249.844.844,0,0,0-.275.662.811.811,0,0,0,.081.352,2.167,2.167,0,0,0,.2.333,2.4,2.4,0,0,0,.264.3c.1.092.186.175.269.249.11-.065.23-.141.358-.23a2.545,2.545,0,0,0,.36-.289,1.659,1.659,0,0,0,.277-.345.778.778,0,0,0,.11-.394.791.791,0,0,0-.284-.656,1.053,1.053,0,0,0-.683-.228" transform="translate(46.283 102.906)" fill="#f1f2f2"/>
    <path id="Path_109" data-name="Path 109" d="M67.892,127.556h3.261l2.251,6.383h.029l2.265-6.383h3.246v9.781H76.789v-7.5H76.76l-2.569,7.5H72.547l-2.473-7.5h-.027v7.5H67.892Z" transform="translate(54.831 103.017)" fill="#f1f2f2"/>
    <path id="Path_110" data-name="Path 110" d="M79.92,127.556H81.7l4.255,9.779H83.526l-.842-2.072h-3.8l-.813,2.072H75.694Zm.83,2.845-1.188,3.039h2.39Z" transform="translate(61.132 103.017)" fill="#f1f2f2"/>
    <path id="Path_111" data-name="Path 111" d="M83.061,127.556H85.99l4.158,6.8h.029v-6.8h2.155v9.781H89.513l-4.27-6.963h-.027v6.963H83.061Z" transform="translate(67.082 103.017)" fill="#f1f2f2"/>
    <path id="Path_112" data-name="Path 112" d="M98.682,133.565a4.747,4.747,0,0,1-.262,1.6,3.53,3.53,0,0,1-.781,1.273,3.581,3.581,0,0,1-1.292.842,5.419,5.419,0,0,1-3.577,0,3.589,3.589,0,0,1-1.291-.842,3.53,3.53,0,0,1-.781-1.273,4.7,4.7,0,0,1-.262-1.6v-6.009h2.155v5.925a2.4,2.4,0,0,0,.145.842,2.013,2.013,0,0,0,.409.671,1.826,1.826,0,0,0,.627.441,1.966,1.966,0,0,0,.8.159,1.9,1.9,0,0,0,.786-.159,1.857,1.857,0,0,0,.622-.441,2.013,2.013,0,0,0,.409-.671,2.4,2.4,0,0,0,.145-.842v-5.925h2.155Z" transform="translate(73.038 103.017)" fill="#f1f2f2"/>
    <path id="Path_113" data-name="Path 113" d="M97.291,127.556h6.562v1.988H99.446v1.99h4.076v1.988H99.446v3.814H97.291Z" transform="translate(78.575 103.017)" fill="#f1f2f2"/>
    <path id="Path_114" data-name="Path 114" d="M106.171,127.556h1.782l4.255,9.779h-2.431l-.842-2.072h-3.8l-.813,2.072h-2.377ZM107,130.4l-1.188,3.039h2.39Z" transform="translate(82.333 103.017)" fill="#f1f2f2"/>
    <path id="Path_115" data-name="Path 115" d="M115.942,130.209a2.114,2.114,0,0,0-.781-.595,2.6,2.6,0,0,0-1.07-.206,2.682,2.682,0,0,0-2.025.891,3.053,3.053,0,0,0-.593,1,3.8,3.8,0,0,0,0,2.52,3.137,3.137,0,0,0,.587,1,2.666,2.666,0,0,0,.877.656,2.554,2.554,0,0,0,1.085.235,2.424,2.424,0,0,0,1.173-.277,2.333,2.333,0,0,0,.842-.774l1.8,1.339a3.744,3.744,0,0,1-1.574,1.285,4.874,4.874,0,0,1-1.961.414,6.013,6.013,0,0,1-2.115-.36,4.835,4.835,0,0,1-1.67-1.029,4.65,4.65,0,0,1-1.1-1.623,5.941,5.941,0,0,1,0-4.255,4.666,4.666,0,0,1,1.1-1.623,4.835,4.835,0,0,1,1.67-1.029,6.054,6.054,0,0,1,2.115-.36,5.17,5.17,0,0,1,.862.076,4.646,4.646,0,0,1,.884.242,3.92,3.92,0,0,1,.837.443,3.334,3.334,0,0,1,.718.676Z" transform="translate(88.048 102.906)" fill="#f1f2f2"/>
    <path id="Path_116" data-name="Path 116" d="M117.987,129.463H115.2v-1.907h7.737v1.907h-2.791v7.874h-2.155Z" transform="translate(93.035 103.017)" fill="#f1f2f2"/>
    <path id="Path_117" data-name="Path 117" d="M129.472,133.565a4.793,4.793,0,0,1-.26,1.6,3.465,3.465,0,0,1-2.075,2.115,5.414,5.414,0,0,1-3.575,0,3.581,3.581,0,0,1-1.292-.842,3.53,3.53,0,0,1-.781-1.273,4.7,4.7,0,0,1-.26-1.6v-6.009h2.153v5.925a2.4,2.4,0,0,0,.145.842,2.039,2.039,0,0,0,.407.671,1.868,1.868,0,0,0,.629.441,1.972,1.972,0,0,0,.8.159,1.911,1.911,0,0,0,.786-.159,1.857,1.857,0,0,0,.622-.441,1.984,1.984,0,0,0,.409-.671,2.4,2.4,0,0,0,.145-.842v-5.925h2.155Z" transform="translate(97.906 103.017)" fill="#f1f2f2"/>
    <path id="Path_118" data-name="Path 118" d="M128.035,127.556h3.785a6.732,6.732,0,0,1,1.415.145,3.378,3.378,0,0,1,1.175.484,2.423,2.423,0,0,1,.8.911,3.1,3.1,0,0,1,.3,1.43,2.864,2.864,0,0,1-.539,1.761,2.42,2.42,0,0,1-1.574.918l2.486,4.13H133.3l-2.044-3.908H130.19v3.908h-2.155Zm2.155,4.047h1.271c.193,0,.4-.007.615-.022a1.9,1.9,0,0,0,.587-.123,1.009,1.009,0,0,0,.436-.325.994.994,0,0,0,.172-.622,1.029,1.029,0,0,0-.152-.593,1.014,1.014,0,0,0-.387-.34,1.722,1.722,0,0,0-.539-.157,4.2,4.2,0,0,0-.595-.042H130.19Z" transform="translate(103.404 103.017)" fill="#f1f2f2"/>
    <path id="Path_119" data-name="Path 119" d="M134.179,127.556h6.645v1.988h-4.49v1.824h4.241v1.99h-4.241v1.988h4.738v1.99h-6.892Z" transform="translate(108.366 103.017)" fill="#f1f2f2"/>
    <path id="Path_120" data-name="Path 120" d="M140.1,127.556h3.785a6.732,6.732,0,0,1,1.415.145,3.378,3.378,0,0,1,1.175.484,2.422,2.422,0,0,1,.8.911,3.1,3.1,0,0,1,.3,1.43,2.864,2.864,0,0,1-.539,1.761,2.42,2.42,0,0,1-1.574.918l2.485,4.13h-2.583l-2.044-3.908H142.25v3.908H140.1Zm2.155,4.047h1.271c.193,0,.4-.007.615-.022a1.9,1.9,0,0,0,.587-.123,1.01,1.01,0,0,0,.436-.325.994.994,0,0,0,.172-.622,1.029,1.029,0,0,0-.152-.593,1.014,1.014,0,0,0-.387-.34,1.722,1.722,0,0,0-.539-.157,4.2,4.2,0,0,0-.595-.042H142.25Z" transform="translate(113.144 103.017)" fill="#f1f2f2"/>
  </g>
</svg>
