<?xml version="1.0" encoding="UTF-8"?>
<svg id="Layer_2" data-name="Layer 2" xmlns="http://www.w3.org/2000/svg" viewBox="0 0 746.41 108.64">
  <defs>
    <style>
      .cls-1 {
        fill: #db312d;
      }

      .cls-1, .cls-2, .cls-3, .cls-4 {
        stroke-width: 0px;
      }

      .cls-2 {
        fill: #bc2928;
      }

      .cls-3 {
        fill: #ef3a3a;
      }

      .cls-4 {
        fill: #f4f4f5;
      }
    </style>
  </defs>
  <g id="Layer_1-2" data-name="Layer 1">
    <g>
      <path class="cls-1" d="m210.67,61.73c-6.32-30.67-16.36-45.24-22.49-53.17-4.91-6.35-13.28-12.73-19.49-5.02-18.89,23.46-49.84,35.61-90.86,43.12,0,0-.84.15-2.1.37-18.09,3.21-38.09,5.57-59.86,7.6-.19.02-.37.05-.55.07C5.9,55.91-.88,65.09.09,75.52c.52,5.5,3.09,10.27,6.82,13.45,2.32,1.99,5.6,1.79,7.71-.05.68-.59,1.25-1.36,1.61-2.29,4.37-11.1,16.52-19.75,31.52-21.15,8.46-.8,16.47.85,22.97,4.26,1.28.62,2.42,1.31,3.47,2.06,2.51,1.72,4.72,3.72,6.55,5.97.06.08.11.14.17.22,0,0,1.88,2.56,2.46,3.66h0s.03.05.04.08c1.59,2.9,2.61,6.07,2.93,9.45.31,3.43-.11,6.8-1.18,9.97-.45,1.37-1.02,2.7-1.71,3.98-.79,1.49.34,3.28,2.02,3.26,100.5-1.31,126.69-33.13,127.4-34v-.02c-.67-4.5-1.42-8.7-2.22-12.63Zm-27.32-38.43l-5.32-1.44-4.22,3.56-.26-5.51-4.7-2.91,5.16-1.96,1.31-5.36,3.46,4.3,5.5-.4-3.03,4.61,2.09,5.11Z"/>
      <path class="cls-2" d="m210.67,61.73l2.24,12.63s0,0-.01.02c-.71.87-26.9,32.69-127.4,34-1.68.02-2.8-1.77-2.02-3.26.68-1.29,1.25-2.61,1.7-3.98h0c1.23-.04,96.26-3.5,125.49-39.42Z"/>
      <path class="cls-3" d="m89.67,100.91c19.85-1.81,39.65-4.64,59.06-9.19,14.5-3.43,28.95-7.73,42.18-14.69,4.41-2.3,8.64-4.96,12.54-8.09-26.8,23.03-79.1,30.26-113.77,31.97h0Z"/>
      <path class="cls-3" d="m77.84,46.65c30.19-7.12,69.09-17.97,89.99-42.05-17.78,26.33-59.72,38.7-89.99,42.05h0Z"/>
      <path class="cls-2" d="m80.71,77.5c.05.07.03.18.04.27-1.83-2.25-4.03-4.25-6.55-5.97-1.05-.75-2.18-1.45-3.46-2.07-6.51-3.4-14.51-5.05-22.98-4.26-15,1.41-27.15,10.06-31.52,21.16-.37.93-.93,1.7-1.62,2.29,2.84-10.52,11.52-21.7,29.66-24.93,15.91-2.83,27.8,1.56,36.43,13.5Z"/>
      <g>
        <path class="cls-4" d="m233.55,81.29c-.22,0-.32-.11-.32-.32V27.42c0-.21.11-.32.32-.32h11.6c.21,0,.32.11.32.32v19.25c0,.16.01.31.04.44.03.13.09.2.2.2h.16c.11,0,.24-.09.4-.28.16-.19.29-.39.4-.6,1.07-2.04,1.99-3.77,2.74-5.19.75-1.42,1.48-2.72,2.17-3.91.7-1.18,1.42-2.48,2.17-3.91.75-1.42,1.66-3.15,2.74-5.19.27-.48.54-.79.81-.93.27-.13.56-.2.89-.2h11.19c.64,0,.91.21.81.64-.11.43-.46,1.26-1.05,2.5-1.56,2.47-2.98,4.81-4.27,7.01-1.29,2.2-2.52,4.46-3.7,6.76-1.18,2.31-2.39,4.89-3.62,7.73-.22.48-.35.91-.4,1.29-.05.38-.08.75-.08,1.13,0,1.02.16,2.09.48,3.22.32,1.13.77,2.24,1.33,3.34.56,1.1,1.22,2.16,1.97,3.18.75,1.02,1.56,1.93,2.42,2.74,1.07,1.07,2.31,1.95,3.7,2.62,1.4.67,3.09,1.01,5.07,1.01.11,0,.24.03.4.08s.24.13.24.24v10.31c0,.27-.08.4-.24.4-3.7,0-6.8-.28-9.3-.85-2.5-.56-4.93-1.76-7.29-3.58-.97-.75-1.87-1.6-2.7-2.54-.83-.94-1.64-1.97-2.42-3.1-.78-1.13-1.49-2.35-2.13-3.66-.64-1.31-1.24-2.72-1.77-4.23-.16-.43-.35-.74-.56-.93-.22-.19-.35-.28-.4-.28h-.16c-.16.11-.24.3-.24.56v18.28c0,.22-.11.32-.32.32h-11.6Z"/>
        <path class="cls-4" d="m277.28,81.29c-.81,0-1.21-.38-1.21-1.13V28.3c0-.81.4-1.21,1.21-1.21h27.38c.75,0,1.19.05,1.33.16.13.11.2.51.2,1.21v6.44c0,.75-.09,1.2-.28,1.33-.19.13-.6.2-1.25.2h-15.62c-.38,0-.59.03-.64.08-.05.05-.08.24-.08.56v11.6c0,.38.03.59.08.64.05.05.24.08.56.08h12.08c.81,0,1.27.08,1.41.24.13.16.2.67.2,1.53v5.72c0,.81-.08,1.29-.24,1.45s-.62.24-1.37.24h-12.08c-.27,0-.44.03-.52.08-.08.05-.12.21-.12.48v12.08c0,.32.03.52.08.6.05.08.24.12.56.12h15.46c.91,0,1.44.09,1.57.28.13.19.2.68.2,1.49v5.8c0,.86-.11,1.37-.32,1.53-.22.16-.73.24-1.53.24h-27.06Z"/>
        <path class="cls-4" d="m345.33,65.59c0,3.81-.78,6.87-2.34,9.18-1.56,2.31-3.62,3.97-6.2,4.99-2.58,1.02-5.42,1.53-8.54,1.53h-17.47c-.81,0-1.21-.38-1.21-1.13V28.3c0-.81.4-1.21,1.21-1.21h14.25c2.68,0,5.21.12,7.57.36,2.36.24,4.46.81,6.28,1.69,1.82.89,3.25,2.28,4.27,4.19,1.02,1.91,1.53,4.5,1.53,7.77,0,1.02-.19,2.31-.56,3.87-.38,1.56-.99,3.06-1.85,4.51-.86,1.45-1.99,2.52-3.38,3.22-.32.11-.44.28-.36.52.08.24.2.42.36.52,1.77.86,3.29,2.42,4.55,4.67,1.26,2.26,1.89,4.64,1.89,7.17Zm-13.53-23.92c0-1.82-.35-3.18-1.05-4.07-.7-.89-1.73-1.46-3.1-1.73-1.37-.27-3.07-.4-5.11-.4h-.16c-.38,0-.56.24-.56.73v12c0,.38.21.56.64.56h3.06c1.45,0,2.63-.2,3.54-.6.91-.4,1.6-1.11,2.05-2.13.46-1.02.68-2.47.68-4.35Zm.48,23.84c0-2.2-.3-3.82-.89-4.87-.59-1.05-1.45-1.72-2.58-2.01-1.13-.29-2.52-.44-4.19-.44h-2.25c-.38,0-.56.16-.56.48v13.69c0,.21.03.36.08.44.05.08.24.12.56.12h3.22c.64,0,1.35-.07,2.13-.2.78-.13,1.5-.43,2.17-.89.67-.46,1.22-1.18,1.65-2.17.43-.99.64-2.38.64-4.15Z"/>
        <path class="cls-4" d="m348.05,81.29c-.54,0-.86-.21-.97-.64-.11-.43-.05-1.29.16-2.58.32-2.36.86-5.22,1.61-8.58.75-3.35,1.64-6.91,2.66-10.67,1.02-3.76,2.12-7.51,3.3-11.27,1.18-3.76,2.39-7.26,3.62-10.51,1.23-3.25,2.42-5.97,3.54-8.17.32-.54.63-.97.93-1.29.29-.32.66-.48,1.09-.48h7.97c.43.16.81.36,1.13.6.32.24.62.63.89,1.17,1.18,2.2,2.39,4.93,3.62,8.17,1.23,3.25,2.44,6.75,3.62,10.51,1.18,3.76,2.28,7.52,3.3,11.27,1.02,3.76,1.9,7.32,2.66,10.67.75,3.36,1.29,6.21,1.61,8.58.21,1.29.27,2.15.16,2.58-.11.43-.46.64-1.05.64h-9.5c-.48,0-.82-.13-1.01-.4-.19-.27-.39-.99-.6-2.17-.22-1.18-.5-2.58-.85-4.19s-.63-2.93-.85-3.95c-.05-.43-.12-.67-.2-.73-.08-.05-.31-.08-.68-.08h-12.4c-.38,0-.59.03-.64.08s-.13.3-.24.73c-.22,1.02-.5,2.33-.85,3.95-.35,1.61-.63,3.01-.85,4.19-.21,1.18-.42,1.91-.6,2.17-.19.27-.52.4-1.01.4h-9.58Zm16.35-20.78h7.25c.38,0,.59-.07.64-.2.05-.13.03-.39-.08-.77-.54-2.15-1.14-4.44-1.81-6.88-.67-2.44-1.28-4.58-1.81-6.4-.11-.48-.27-.73-.48-.73h-.32c-.16,0-.32.24-.48.73-.32,1.18-.7,2.52-1.13,4.03-.43,1.5-.85,3.05-1.25,4.63-.4,1.58-.79,3.13-1.17,4.63-.05.38-.05.63,0,.77.05.13.27.2.64.2Z"/>
        <path class="cls-4" d="m428.15,65.59c0,3.81-.78,6.87-2.34,9.18-1.56,2.31-3.62,3.97-6.2,4.99-2.58,1.02-5.42,1.53-8.54,1.53h-17.47c-.81,0-1.21-.38-1.21-1.13V28.3c0-.81.4-1.21,1.21-1.21h14.25c2.68,0,5.21.12,7.57.36,2.36.24,4.46.81,6.28,1.69,1.82.89,3.25,2.28,4.27,4.19,1.02,1.91,1.53,4.5,1.53,7.77,0,1.02-.19,2.31-.56,3.87-.38,1.56-.99,3.06-1.85,4.51-.86,1.45-1.99,2.52-3.38,3.22-.32.11-.44.28-.36.52.08.24.2.42.36.52,1.77.86,3.29,2.42,4.55,4.67,1.26,2.26,1.89,4.64,1.89,7.17Zm-13.53-23.92c0-1.82-.35-3.18-1.05-4.07-.7-.89-1.73-1.46-3.1-1.73-1.37-.27-3.07-.4-5.11-.4h-.16c-.38,0-.56.24-.56.73v12c0,.38.21.56.64.56h3.06c1.45,0,2.63-.2,3.54-.6.91-.4,1.6-1.11,2.05-2.13.46-1.02.68-2.47.68-4.35Zm.48,23.84c0-2.2-.3-3.82-.89-4.87-.59-1.05-1.45-1.72-2.58-2.01-1.13-.29-2.52-.44-4.19-.44h-2.25c-.38,0-.56.16-.56.48v13.69c0,.21.03.36.08.44.05.08.24.12.56.12h3.22c.64,0,1.35-.07,2.13-.2.78-.13,1.5-.43,2.17-.89.67-.46,1.22-1.18,1.65-2.17.43-.99.64-2.38.64-4.15Z"/>
        <path class="cls-4" d="m449.68,81.29c-.81,0-1.21-.38-1.21-1.13V28.3c0-.81.4-1.21,1.21-1.21h27.38c.75,0,1.19.05,1.33.16.13.11.2.51.2,1.21v6.44c0,.75-.09,1.2-.28,1.33-.19.13-.6.2-1.25.2h-15.62c-.38,0-.59.03-.64.08-.05.05-.08.24-.08.56v11.6c0,.38.03.59.08.64.05.05.24.08.56.08h12.08c.81,0,1.27.08,1.41.24.13.16.2.67.2,1.53v5.72c0,.81-.08,1.29-.24,1.45s-.62.24-1.37.24h-12.08c-.27,0-.44.03-.52.08-.08.05-.12.21-.12.48v20.37c0,.86-.08,1.37-.24,1.53-.16.16-.7.24-1.61.24h-9.18Z"/>
        <path class="cls-4" d="m477.93,81.29c-.54,0-.86-.21-.97-.64-.11-.43-.05-1.29.16-2.58.32-2.36.86-5.22,1.61-8.58.75-3.35,1.64-6.91,2.66-10.67,1.02-3.76,2.12-7.51,3.3-11.27,1.18-3.76,2.39-7.26,3.62-10.51,1.23-3.25,2.42-5.97,3.54-8.17.32-.54.63-.97.93-1.29.29-.32.66-.48,1.09-.48h7.97c.43.16.81.36,1.13.6.32.24.62.63.89,1.17,1.18,2.2,2.39,4.93,3.62,8.17,1.23,3.25,2.44,6.75,3.62,10.51,1.18,3.76,2.28,7.52,3.3,11.27,1.02,3.76,1.9,7.32,2.66,10.67.75,3.36,1.29,6.21,1.61,8.58.21,1.29.27,2.15.16,2.58-.11.43-.46.64-1.05.64h-9.5c-.48,0-.82-.13-1.01-.4-.19-.27-.39-.99-.6-2.17-.22-1.18-.5-2.58-.85-4.19-.35-1.61-.63-2.93-.85-3.95-.05-.43-.12-.67-.2-.73-.08-.05-.31-.08-.68-.08h-12.4c-.38,0-.59.03-.64.08s-.13.3-.24.73c-.22,1.02-.5,2.33-.85,3.95-.35,1.61-.63,3.01-.85,4.19-.21,1.18-.42,1.91-.6,2.17-.19.27-.52.4-1.01.4h-9.58Zm16.35-20.78h7.25c.38,0,.59-.07.64-.2.05-.13.03-.39-.08-.77-.54-2.15-1.14-4.44-1.81-6.88-.67-2.44-1.28-4.58-1.81-6.4-.11-.48-.27-.73-.48-.73h-.32c-.16,0-.32.24-.48.73-.32,1.18-.7,2.52-1.13,4.03-.43,1.5-.85,3.05-1.25,4.63-.4,1.58-.79,3.13-1.17,4.63-.05.38-.05.63,0,.77.05.13.27.2.64.2Z"/>
        <path class="cls-4" d="m551.78,78.14c0,1.45-.86,2.39-2.58,2.82-.75.27-1.69.47-2.82.6-1.13.13-2.2.23-3.22.28-1.02.05-1.8.08-2.34.08-6.61,0-11.92-2.35-15.92-7.05-4-4.7-6.01-11.57-6.01-20.6s1.94-16.06,5.8-20.76c3.87-4.7,9.24-7.05,16.12-7.05.54,0,1.32.04,2.34.12,1.02.08,2.1.19,3.22.32,1.13.13,2.07.34,2.82.6.81.22,1.44.46,1.89.73.46.27.68.7.68,1.29v7.98c0,1.67-.91,1.85-2.74.56-1.18-.75-2.42-1.3-3.71-1.65-1.29-.35-2.47-.52-3.55-.52-1.99,0-3.66.43-5,1.29-1.34.86-2.42,2.07-3.22,3.63-.81,1.56-1.37,3.39-1.69,5.48-.32,2.1-.48,4.41-.48,6.93,0,1.72.08,3.48.24,5.28.16,1.8.46,3.55.89,5.24.43,1.69,1.02,3.21,1.77,4.56.75,1.34,1.75,2.41,2.98,3.18,1.24.78,2.74,1.17,4.51,1.17,1.29,0,2.58-.17,3.87-.52,1.29-.35,2.31-.77,3.06-1.25,1.24-.75,2.06-1.1,2.46-1.05.4.05.6.54.6,1.45v6.85Z"/>
        <path class="cls-4" d="m567.57,81.29c-.27,0-.54-.11-.81-.32-.27-.21-.4-.48-.4-.81v-43.16c0-.27-.03-.43-.08-.48-.05-.05-.22-.08-.48-.08h-9.18c-.7,0-1.12-.07-1.25-.2-.13-.13-.2-.44-.2-.93v-7.17c0-.43.07-.71.2-.85s.5-.2,1.09-.2h31.97c.64,0,1.05.07,1.21.2.16.13.24.42.24.85v7.17c0,.48-.08.79-.24.93-.16.13-.59.2-1.29.2h-9.18c-.32,0-.51.03-.56.08-.05.05-.08.21-.08.48v43.16c0,.75-.38,1.13-1.13,1.13h-9.82Z"/>
        <path class="cls-4" d="m589.88,54.23c0-5.87.65-10.87,1.94-15.02,1.29-4.14,3.59-7.31,6.9-9.49s7.95-3.27,13.93-3.27c4.63,0,8.44.62,11.42,1.86,2.99,1.24,5.31,3.04,6.98,5.41,1.67,2.37,2.83,5.28,3.47,8.72.65,3.45.97,7.37.97,11.79s-.32,8.33-.97,11.75c-.65,3.42-1.8,6.31-3.47,8.68-1.67,2.37-4,4.17-6.98,5.41-2.99,1.24-6.8,1.86-11.42,1.86-5.97,0-10.62-1.09-13.93-3.27-3.31-2.18-5.61-5.33-6.9-9.45-1.29-4.12-1.94-9.11-1.94-14.98Zm12.68,0c0,4.74.35,8.38,1.05,10.94.7,2.56,1.78,4.33,3.23,5.33,1.45,1,3.34,1.49,5.65,1.49s4.23-.48,5.73-1.45c1.51-.97,2.65-2.74,3.43-5.33.78-2.58,1.17-6.24,1.17-10.98s-.39-8.48-1.17-11.06c-.78-2.58-1.93-4.39-3.43-5.41-1.51-1.02-3.42-1.53-5.73-1.53s-4.2.51-5.65,1.53c-1.45,1.02-2.53,2.83-3.23,5.41-.7,2.58-1.05,6.27-1.05,11.06Z"/>
        <path class="cls-4" d="m640.09,81.29c-.81,0-1.21-.38-1.21-1.13V28.3c0-.81.4-1.21,1.21-1.21h14.25c4.24,0,7.69.56,10.35,1.69,2.66,1.13,4.62,2.94,5.88,5.44,1.26,2.5,1.89,5.84,1.89,10.03,0,2.68-.47,5.27-1.41,7.77-.94,2.5-2.4,4.63-4.39,6.4-.81.81-1.41,1.54-1.81,2.21-.4.67-.26,1.54.44,2.62.48.75.95,1.48,1.41,2.17.46.7.95,1.32,1.49,1.85.54.54,1.15,1.02,1.85,1.45.75.48,1.65.86,2.7,1.13,1.05.27,2.3.4,3.74.4.59,0,.94.07,1.05.2.11.13.16.52.16,1.17v8.62c0,.32-.07.55-.2.68s-.51.23-1.13.28c-.62.05-1.68.08-3.18.08-2.25,0-4.34-.32-6.24-.97-1.91-.64-3.64-1.53-5.19-2.66-1.29-.97-2.48-2.09-3.58-3.38-1.1-1.29-2.08-2.7-2.94-4.23-.86-1.53-1.61-3.15-2.25-4.87-.05-.11-.17-.43-.36-.97-.19-.54-.39-.81-.6-.81h-.48c-.27,0-.4.43-.4,1.29v15.46c0,.75-.43,1.13-1.29,1.13h-9.74Zm11.03-28.18c0,.27.04.44.12.52.08.08.25.12.52.12h2.17c2.04,0,3.65-.87,4.83-2.62,1.18-1.74,1.77-4.01,1.77-6.8,0-2.47-.28-4.33-.85-5.6-.56-1.26-1.34-2.12-2.33-2.58-.99-.46-2.16-.68-3.5-.68h-2.17c-.22,0-.36.03-.44.08-.08.05-.12.27-.12.64v16.91Z"/>
        <path class="cls-4" d="m703.08,59.15c-.32.43-.55,1.03-.68,1.81-.13.78-.2,1.46-.2,2.05v17.15c0,.32-.12.59-.36.81-.24.22-.5.32-.77.32h-9.9c-.81,0-1.21-.38-1.21-1.13v-17.15c0-1.45-.4-2.91-1.21-4.39-.81-1.48-1.48-2.64-2.01-3.5-.16-.32-.55-.99-1.17-2.01-.62-1.02-1.3-2.15-2.05-3.38-.75-1.23-1.44-2.38-2.05-3.42-.62-1.05-1.01-1.73-1.17-2.05-1.45-2.79-2.59-5.23-3.42-7.33-.83-2.09-1.42-3.8-1.77-5.11-.35-1.31-.58-2.13-.68-2.46-.22-.91-.11-1.52.32-1.81.43-.29.94-.44,1.53-.44h9.5c.81,0,1.31.38,1.53,1.13.54,1.83,1.06,3.44,1.57,4.83.51,1.4,1.01,2.62,1.49,3.66.48,1.05.89,1.92,1.21,2.62.75,1.45,1.41,2.7,1.97,3.74.56,1.05,1.11,2,1.65,2.86.38.59.67.91.89.97.21.05.51-.27.89-.97.16-.32.36-.64.6-.97.24-.32.51-.74.81-1.25.29-.51.63-1.14,1.01-1.89.43-.81.98-1.92,1.65-3.34.67-1.42,1.37-3.05,2.09-4.87.73-1.82,1.3-3.68,1.73-5.56.11-.43.27-.7.48-.81.21-.11.59-.16,1.13-.16h9.9c.43,0,.82.15,1.17.44.35.3.44.9.28,1.81-.05.32-.25,1.2-.6,2.62-.35,1.42-.94,3.25-1.77,5.48-.83,2.23-2,4.74-3.5,7.53-.32.7-.85,1.65-1.57,2.86-.72,1.21-1.53,2.54-2.42,3.99-.89,1.45-1.76,2.82-2.62,4.11s-1.61,2.36-2.25,3.22Z"/>
      </g>
      <g>
        <path class="cls-1" d="m736.61,46.7c-5.41,0-9.8-4.4-9.8-9.8s4.4-9.8,9.8-9.8,9.8,4.4,9.8,9.8-4.4,9.8-9.8,9.8Zm0-17.04c-3.99,0-7.24,3.25-7.24,7.24s3.25,7.24,7.24,7.24,7.24-3.25,7.24-7.24-3.25-7.24-7.24-7.24Z"/>
        <path class="cls-1" d="m733.6,42.08c-.15,0-.23-.07-.23-.22v-9.91c0-.15.08-.23.23-.23h2.72c.81,0,1.47.11,1.98.32s.88.56,1.12,1.04.36,1.12.36,1.92c0,.51-.09,1.01-.27,1.48-.18.48-.46.89-.84,1.22-.15.15-.27.3-.35.42-.08.13-.05.3.08.5.09.14.18.28.27.42.09.13.18.25.28.35s.22.2.35.28c.14.09.32.16.52.22.2.05.44.08.72.08.11,0,.18.01.2.04.02.03.03.1.03.22v1.65c0,.06-.01.11-.04.13-.03.03-.1.04-.22.05-.12.01-.32.02-.61.02-.43,0-.83-.06-1.19-.18-.36-.12-.69-.29-.99-.51-.25-.18-.47-.4-.68-.65-.21-.25-.4-.52-.56-.81-.16-.29-.31-.6-.43-.93-.01-.02-.03-.08-.07-.18-.04-.1-.07-.15-.12-.15h-.09c-.05,0-.08.08-.08.25v2.95c0,.14-.08.22-.25.22h-1.86Zm2.11-5.39c0,.05,0,.09.02.1s.05.02.1.02h.42c.39,0,.7-.17.92-.5.23-.33.34-.77.34-1.3,0-.47-.05-.83-.16-1.07-.11-.24-.26-.41-.45-.49-.19-.09-.41-.13-.67-.13h-.42s-.07,0-.08.02c-.02.01-.02.05-.02.12v3.23Z"/>
      </g>
      <g>
        <path class="cls-4" d="m276.07,93.21h10.09v3.06h-6.78v3.06h6.27v3.06h-6.27v5.86h-3.31v-15.04Z"/>
        <path class="cls-4" d="m295.52,93.21h2.74l6.55,15.04h-3.74l-1.3-3.19h-5.84l-1.25,3.19h-3.65l6.5-15.04Zm1.27,4.38l-1.83,4.67h3.68l-1.85-4.67Z"/>
        <path class="cls-4" d="m316.94,96.89c-.27-.34-.63-.59-1.09-.75-.46-.16-.9-.24-1.31-.24-.24,0-.49.03-.74.08-.26.06-.5.15-.72.27-.23.12-.41.28-.55.48-.14.2-.21.44-.21.72,0,.45.17.8.51,1.04.34.24.77.45,1.29.62s1.07.34,1.67.51c.59.17,1.15.41,1.67.72.52.31.95.73,1.29,1.25.34.52.51,1.23.51,2.1s-.16,1.57-.47,2.19c-.31.62-.73,1.14-1.26,1.55-.53.41-1.15.72-1.85.91s-1.44.3-2.22.3c-.98,0-1.88-.15-2.72-.45-.84-.3-1.61-.78-2.34-1.45l2.36-2.59c.34.45.77.8,1.29,1.05.52.25,1.05.37,1.6.37.27,0,.54-.03.82-.1s.52-.16.74-.29.4-.29.53-.49c.13-.2.2-.43.2-.7,0-.45-.17-.81-.52-1.07-.35-.26-.78-.49-1.31-.67-.52-.18-1.09-.37-1.7-.55-.61-.18-1.18-.43-1.7-.74-.52-.31-.96-.72-1.31-1.23-.35-.51-.52-1.18-.52-2.02s.16-1.52.48-2.12c.32-.61.74-1.12,1.27-1.53.53-.41,1.14-.72,1.84-.92.69-.21,1.41-.31,2.15-.31.85,0,1.67.12,2.47.36.79.24,1.51.64,2.15,1.21l-2.27,2.49Z"/>
        <path class="cls-4" d="m327.8,96.15h-4.29v-2.93h11.9v2.93h-4.29v12.11h-3.31v-12.11Z"/>
        <path class="cls-4" d="m349.87,93.21h10.09v3.06h-6.78v3.06h6.27v3.06h-6.27v5.86h-3.32v-15.04Z"/>
        <path class="cls-4" d="m364.73,100.73c0-1.2.2-2.29.61-3.27s.97-1.81,1.69-2.5c.72-.69,1.58-1.21,2.57-1.58.99-.37,2.08-.55,3.25-.55s2.26.18,3.25.55c.99.37,1.85.9,2.57,1.58.72.69,1.29,1.52,1.69,2.5.4.98.61,2.07.61,3.27s-.2,2.3-.61,3.27c-.4.98-.97,1.81-1.69,2.5-.72.69-1.58,1.21-2.57,1.58-.99.37-2.08.55-3.25.55s-2.26-.18-3.25-.55c-.99-.37-1.85-.9-2.57-1.58-.72-.69-1.29-1.52-1.69-2.5s-.61-2.07-.61-3.27Zm3.44,0c0,.71.11,1.36.33,1.94.22.59.53,1.1.95,1.53.41.43.9.77,1.48,1.01.57.24,1.21.36,1.92.36s1.35-.12,1.92-.36c.57-.24,1.07-.58,1.48-1.01.41-.43.73-.94.95-1.53.22-.59.33-1.24.33-1.94s-.11-1.34-.33-1.93c-.22-.6-.53-1.11-.95-1.54-.41-.43-.9-.77-1.48-1.01-.57-.24-1.21-.36-1.92-.36s-1.35.12-1.92.36c-.57.24-1.07.58-1.48,1.01-.41.43-.73.95-.95,1.54-.22.59-.33,1.24-.33,1.93Z"/>
        <path class="cls-4" d="m385.59,100.73c0-1.2.2-2.29.61-3.27s.97-1.81,1.69-2.5c.72-.69,1.58-1.21,2.57-1.58.99-.37,2.08-.55,3.25-.55s2.26.18,3.25.55c.99.37,1.85.9,2.57,1.58.72.69,1.29,1.52,1.69,2.5.4.98.61,2.07.61,3.27s-.2,2.3-.61,3.27c-.4.98-.97,1.81-1.69,2.5-.72.69-1.58,1.21-2.57,1.58-.99.37-2.08.55-3.25.55s-2.26-.18-3.25-.55c-.99-.37-1.85-.9-2.57-1.58-.72-.69-1.29-1.52-1.69-2.5s-.61-2.07-.61-3.27Zm3.44,0c0,.71.11,1.36.33,1.94.22.59.53,1.1.95,1.53.41.43.9.77,1.48,1.01.57.24,1.21.36,1.92.36s1.35-.12,1.92-.36c.57-.24,1.07-.58,1.48-1.01.41-.43.73-.94.95-1.53.22-.59.33-1.24.33-1.94s-.11-1.34-.33-1.93c-.22-.6-.53-1.11-.95-1.54-.41-.43-.9-.77-1.48-1.01-.57-.24-1.21-.36-1.92-.36s-1.35.12-1.92.36c-.57.24-1.07.58-1.48,1.01-.41.43-.73.95-.95,1.54-.22.59-.33,1.24-.33,1.93Z"/>
        <path class="cls-4" d="m407.27,93.21h4.97c1.2,0,2.35.13,3.43.4,1.08.27,2.03.7,2.84,1.31.81.6,1.45,1.38,1.92,2.35.47.96.71,2.13.71,3.51,0,1.22-.23,2.29-.69,3.22-.46.93-1.08,1.71-1.86,2.34-.78.63-1.68,1.11-2.7,1.43-1.02.33-2.09.49-3.21.49h-5.42v-15.04Zm3.32,11.98h1.72c.76,0,1.48-.08,2.14-.23.66-.16,1.23-.41,1.71-.78s.86-.84,1.14-1.42c.28-.59.41-1.31.41-2.16,0-.74-.14-1.38-.41-1.92-.28-.55-.65-1-1.12-1.35-.47-.35-1.02-.62-1.65-.8-.63-.18-1.29-.27-1.99-.27h-1.95v8.92Z"/>
        <path class="cls-4" d="m447.18,104.71l3.36,3.55h-4.1l-1.25-1.42c-.62.64-1.29,1.1-2.01,1.38-.72.28-1.52.42-2.41.42-.68,0-1.34-.09-1.98-.28-.64-.18-1.21-.46-1.71-.84-.5-.38-.9-.85-1.2-1.41-.3-.57-.45-1.23-.45-1.98,0-.48.08-.94.24-1.37.16-.43.39-.83.68-1.18s.63-.66,1.01-.92c.38-.26.8-.47,1.25-.63-.24-.27-.46-.52-.67-.77-.21-.24-.38-.5-.53-.77-.15-.27-.26-.55-.34-.85-.08-.3-.12-.63-.12-1,0-.68.13-1.26.39-1.74.26-.48.61-.88,1.05-1.19.44-.31.94-.54,1.51-.68.57-.14,1.15-.21,1.74-.21s1.13.07,1.66.22c.52.15.99.38,1.39.68.4.3.73.69.97,1.15.24.46.36,1.01.36,1.65,0,.45-.07.87-.22,1.25-.15.38-.35.74-.61,1.07-.26.33-.55.63-.88.89-.33.26-.69.49-1.07.69l1.93,2.06,1.47-2h3.7l-3.17,4.21Zm-6.59-2.87c-.21.13-.42.26-.63.39-.21.13-.39.28-.55.45-.16.16-.29.35-.39.56-.1.21-.15.46-.15.74s.06.54.17.77c.11.23.26.42.45.57.18.16.4.28.65.37.25.09.5.14.75.14.5,0,.92-.11,1.29-.32.36-.21.72-.47,1.07-.79l-2.66-2.89Zm1.02-6.46c-.41,0-.76.13-1.04.38-.28.26-.42.6-.42,1.02,0,.18.04.36.13.54.09.18.19.35.31.51.12.16.26.32.4.46.15.14.29.27.41.38.17-.1.35-.22.55-.35.2-.13.38-.28.55-.45.17-.16.31-.34.42-.53.11-.19.17-.39.17-.61,0-.44-.15-.78-.44-1.01-.29-.23-.64-.35-1.05-.35Z"/>
        <path class="cls-4" d="m464.86,93.21h5.02l3.46,9.82h.04l3.48-9.82h4.99v15.04h-3.32v-11.54h-.04l-3.95,11.54h-2.53l-3.8-11.54h-.04v11.54h-3.32v-15.04Z"/>
        <path class="cls-4" d="m493.05,93.21h2.74l6.55,15.04h-3.74l-1.3-3.19h-5.84l-1.25,3.19h-3.65l6.5-15.04Zm1.27,4.38l-1.83,4.67h3.68l-1.85-4.67Z"/>
        <path class="cls-4" d="m507.04,93.21h4.5l6.4,10.45h.04v-10.45h3.32v15.04h-4.33l-6.57-10.71h-.04v10.71h-3.32v-15.04Z"/>
        <path class="cls-4" d="m540.23,102.46c0,.89-.13,1.71-.4,2.46-.27.75-.67,1.4-1.2,1.95-.53.55-1.19.98-1.99,1.3-.79.31-1.71.47-2.74.47s-1.97-.16-2.76-.47c-.79-.31-1.46-.74-1.99-1.3s-.93-1.2-1.2-1.95c-.27-.75-.4-1.57-.4-2.46v-9.24h3.32v9.12c0,.47.07.9.22,1.3.15.4.36.74.63,1.03.27.29.59.52.97.68.38.16.78.24,1.22.24s.84-.08,1.21-.24c.37-.16.69-.39.96-.68.27-.29.48-.63.63-1.03.15-.4.22-.83.22-1.3v-9.12h3.32v9.24Z"/>
        <path class="cls-4" d="m546.6,93.21h10.09v3.06h-6.78v3.06h6.27v3.06h-6.27v5.86h-3.32v-15.04Z"/>
        <path class="cls-4" d="m566.05,93.21h2.74l6.55,15.04h-3.74l-1.3-3.19h-5.84l-1.25,3.19h-3.65l6.5-15.04Zm1.27,4.38l-1.83,4.67h3.68l-1.85-4.67Z"/>
        <path class="cls-4" d="m589.87,97.12c-.33-.4-.73-.7-1.2-.91s-1.02-.32-1.65-.32-1.2.12-1.73.36c-.53.24-.99.58-1.38,1.01-.39.43-.69.95-.91,1.54-.22.59-.33,1.24-.33,1.93s.11,1.36.33,1.94c.22.59.52,1.1.9,1.53.38.43.83.77,1.35,1.01.52.24,1.07.36,1.67.36.68,0,1.28-.14,1.81-.42.52-.28.96-.68,1.3-1.19l2.76,2.06c-.64.89-1.44,1.55-2.42,1.98-.98.42-1.98.64-3.02.64-1.18,0-2.26-.18-3.25-.55-.99-.37-1.85-.9-2.57-1.58-.72-.69-1.29-1.52-1.69-2.5-.4-.98-.61-2.07-.61-3.27s.2-2.29.61-3.27c.4-.98.97-1.81,1.69-2.5.72-.69,1.58-1.21,2.57-1.58.99-.37,2.08-.55,3.25-.55.42,0,.87.04,1.33.12.46.08.91.2,1.36.37.45.17.87.4,1.29.68.41.28.78.63,1.11,1.04l-2.55,2.08Z"/>
        <path class="cls-4" d="m600.68,96.15h-4.29v-2.93h11.9v2.93h-4.29v12.11h-3.31v-12.11Z"/>
        <path class="cls-4" d="m625.84,102.46c0,.89-.13,1.71-.4,2.46-.27.75-.67,1.4-1.2,1.95s-1.19.98-1.99,1.3c-.79.31-1.71.47-2.74.47s-1.97-.16-2.76-.47c-.79-.31-1.46-.74-1.99-1.3s-.93-1.2-1.2-1.95c-.27-.75-.4-1.57-.4-2.46v-9.24h3.32v9.12c0,.47.07.9.22,1.3.15.4.36.74.63,1.03.27.29.59.52.97.68.38.16.78.24,1.22.24s.84-.08,1.21-.24c.37-.16.69-.39.96-.68.27-.29.48-.63.63-1.03.15-.4.22-.83.22-1.3v-9.12h3.32v9.24Z"/>
        <path class="cls-4" d="m632.09,93.21h5.82c.76,0,1.49.07,2.18.22.69.15,1.29.4,1.81.74.52.35.93.81,1.23,1.4.3.59.46,1.32.46,2.2,0,1.06-.28,1.97-.83,2.71s-1.36,1.21-2.42,1.41l3.82,6.35h-3.97l-3.15-6.01h-1.64v6.01h-3.32v-15.04Zm3.32,6.23h1.95c.3,0,.61-.01.95-.03.33-.02.63-.08.9-.19.27-.11.49-.27.67-.5.18-.23.27-.55.27-.96,0-.38-.08-.69-.23-.91-.16-.23-.35-.4-.59-.52-.24-.12-.52-.2-.83-.24-.31-.04-.62-.06-.91-.06h-2.17v3.42Z"/>
        <path class="cls-4" d="m649.17,93.21h10.22v3.06h-6.91v2.8h6.52v3.06h-6.52v3.06h7.29v3.06h-10.6v-15.04Z"/>
        <path class="cls-4" d="m665.62,93.21h5.82c.76,0,1.49.07,2.18.22.69.15,1.29.4,1.81.74.52.35.93.81,1.23,1.4.3.59.46,1.32.46,2.2,0,1.06-.28,1.97-.83,2.71s-1.36,1.21-2.42,1.41l3.82,6.35h-3.97l-3.15-6.01h-1.64v6.01h-3.32v-15.04Zm3.32,6.23h1.95c.3,0,.61-.01.95-.03.33-.02.63-.08.9-.19.27-.11.49-.27.67-.5.18-.23.27-.55.27-.96,0-.38-.08-.69-.23-.91-.16-.23-.35-.4-.59-.52-.24-.12-.52-.2-.83-.24-.31-.04-.62-.06-.91-.06h-2.17v3.42Z"/>
      </g>
    </g>
  </g>
</svg>