<svg xmlns="http://www.w3.org/2000/svg" xmlns:xlink="http://www.w3.org/1999/xlink" width="50" height="80.547" viewBox="0 0 75.588 108.547">
  <defs>
    <clipPath id="clip-path">
      <rect id="Rectangle_79" data-name="Rectangle 79" width="75.588" height="108.547" fill="none"/>
    </clipPath>
  </defs>
  <g id="Group_53" data-name="Group 53" clip-path="url(#clip-path)">
    <path id="Path_67" data-name="Path 67" d="M75.588,37.794c0,20.873-37.794,70.753-37.794,70.753S0,58.667,0,37.794a37.794,37.794,0,0,1,75.588,0" fill="#d01820"/>
    <path id="Path_68" data-name="Path 68" d="M82.4,85.159c-1.815-8.813-4.7-13-6.461-15.279-1.411-1.824-3.817-3.657-5.6-1.444-.112.139-.228.275-.343.411-5.946,6.86-17.166,10.016-25.767,11.98l.016,0-.015,0-.6.108c-5.2.924-10.946,1.6-17.2,2.184-.054.005-.108.014-.159.019a5.349,5.349,0,0,0-4.379,5.982,5.764,5.764,0,0,0,1.961,3.865,1.7,1.7,0,0,0,2.217-.013,1.673,1.673,0,0,0,.463-.657c1.255-3.189,4.745-5.675,9.057-6.079a11.885,11.885,0,0,1,6.6,1.223,6.705,6.705,0,0,1,1,.593,8.834,8.834,0,0,1,1.883,1.716c.016.022.032.041.048.062,0,0,.541.735.706,1.053h0c0,.008.008.014.011.022a6.89,6.89,0,0,1,.5,5.581,7.263,7.263,0,0,1-.49,1.145.643.643,0,0,0,.582.937c28.878-.377,36.406-9.521,36.608-9.772l0-.005c-.194-1.293-.41-2.5-.641-3.631M74.546,74.116l-1.53-.415L71.8,74.725l-.075-1.584-1.35-.835,1.484-.563L72.24,70.2l.994,1.236,1.581-.116-.87,1.325Z" transform="translate(-14.654 -45.199)" fill="#f1f2f2"/>
  </g>
</svg>
